<!DOCTYPE svg PUBLIC "-//W3C//DTD SVG 1.1//EN" "http://www.w3.org/Graphics/SVG/1.1/DTD/svg11.dtd">
<!-- Uploaded to: SVG Repo, www.svgrepo.com, Transformed by: SVG Repo Mixer Tools -->
<svg width="800px" height="800px" viewBox="0 0 1024 1024" class="icon" version="1.1" xmlns="http://www.w3.org/2000/svg" fill="#000000">
<g id="SVGRepo_bgCarrier" stroke-width="0"/>
<g id="SVGRepo_tracerCarrier" stroke-linecap="round" stroke-linejoin="round"/>
<g id="SVGRepo_iconCarrier">
<path d="M981.3 170.7H320c-23.6 0-42.7-19.1-42.7-42.7s19.1-42.7 42.7-42.7h661.3c23.6 0 42.7 19.1 42.7 42.7s-19.1 42.7-42.7 42.7zM981.3 938.7H320c-23.6 0-42.7-19.1-42.7-42.7s19.1-42.7 42.7-42.7h661.3c23.6 0 42.7 19.1 42.7 42.7s-19.1 42.7-42.7 42.7zM981.3 554.7H320c-23.6 0-42.7-19.1-42.7-42.7s19.1-42.7 42.7-42.7h661.3c23.6 0 42.7 19.1 42.7 42.7s-19.1 42.7-42.7 42.7z" fill="#ffffff"/>
<path d="M106.7 128m-64 0a64 64 0 1 0 128 0 64 64 0 1 0-128 0Z" fill="#ffffff"/>
<path d="M106.7 512m-64 0a64 64 0 1 0 128 0 64 64 0 1 0-128 0Z" fill="#ffffff"/>
<path d="M106.7 896m-64 0a64 64 0 1 0 128 0 64 64 0 1 0-128 0Z" fill="#ffffff"/>
</g>
</svg>